<svg xmlns="http://www.w3.org/2000/svg" viewBox="0 0 283.46 283.46"><path fill="#fff" d="M30.03 31.49v222.4h222.4V31.49H30.03z"/><path fill="none" stroke="#000" stroke-width="8.06" d="M30.03 31.49v222.4h222.4V31.49H30.03z"/><path d="M78.23 203.66c0 6.47-4.07 10.26-11.1 10.26H60.8v-20.5h6.33c6.97 0 11.1 3.77 11.1 10.24zm-13.95-7v14.06h2.76c4.99 0 7.67-2.59 7.67-7.06 0-4.43-2.71-7-7.67-7h-2.76zM85.46 213.92h-3.49v-20.5h3.49v20.5zM102.98 206.11v-12.69h3.49v20.86h-.11l-12.5-13.08v12.72h-3.49v-20.86h.11l12.5 13.05zM131.35 196.63h-9.46v5.38h8.26v3.04h-8.26v5.66h9.68v3.21H118.4v-20.5h12.94v3.21zM147.87 206.11v-12.69h3.49v20.86h-.11l-12.5-13.08v12.72h-3.49v-20.86h.11l12.5 13.05zM175.99 193.59l-10.1 20.33h-3.68l8.79-17.41h-9.15v-3.1h14.14v.18zM185.4 213.92h-3.38v-14.95l-3.35 1.9-1.45-3.04 8.06-4.77h.11v20.86zM202.97 193.59l-10.1 20.33h-3.68l8.79-17.41h-9.15v-3.1h14.14v.18z"/><g><path d="M211.45 208.26h-8.59v-3.1h8.59v3.1zM221.69 213.92h-3.38v-14.95l-3.35 1.9-1.45-3.04 8.06-4.77h.11v20.86z"/></g><path d="M132.92 81.86H91.33v23.68h36.32v13.37H91.33v24.91h42.58v14.11H75.99V67.75h56.93v14.11zM206.47 112.78c0 28.59-11.78 46.75-32.03 46.75-20.24 0-32.02-18.16-32.02-46.75 0-28.47 11.78-46.63 32.02-46.63 20.25 0 32.03 18.16 32.03 46.63zm-48.97 0c0 20.25 5.41 33.5 16.93 33.5 11.54 0 16.93-13.25 16.93-33.5 0-20.12-5.4-33.37-16.93-33.37-11.52-.01-16.93 13.25-16.93 33.37z"/></svg>
