<svg xmlns="http://www.w3.org/2000/svg" width="159.62" height="107.22"><defs><clipPath id="prefix__a"><path data-name="Rectangle 22" fill="none" d="M0 0h159.62v19.153H0z"/></clipPath></defs><g data-name="Blauer Engel 176" transform="translate(.2 6.084)"><circle data-name="Ellipse 1" cx="40.044" cy="40.044" r="40.044" transform="rotate(-3.62 2.335 -589.12)" fill="#fff"/><g fill="#005ca9"><path data-name="Path 87" d="M64.134 9.234l-1.91-2.074.889 2.675z"/><path data-name="Path 88" d="M56.354 17.777a1.285 1.285 0 00.328-.717.885.885 0 00-.4-.7 1.255 1.255 0 00-.4-.24.8.8 0 00-.356-.032.769.769 0 00-.312.136 1.729 1.729 0 00-.292.28l-.34.4 1.478 1.229z"/><path data-name="Path 89" d="M79.416 3.905a1.053 1.053 0 00.717-.228.937.937 0 00.236-.741.777.777 0 00-.877-.869h-.617l.032 1.838z"/><path data-name="Path 90" d="M53.992 14.648a.8.8 0 00-.629-.24 1.093 1.093 0 00-.6.428l-.276.332 1.273 1.061.212-.256a1.3 1.3 0 00.36-.729.777.777 0 00-.34-.596z"/><path data-name="Path 91" d="M56.472 59.879l1.057-1.578-1.61 1.005z"/><path data-name="Path 92" d="M54.82 56.047a1.866 1.866 0 00.336-.38.561.561 0 00.088-.348.765.765 0 00-.164-.4l-.212-.28-2.607 1.938.224.3a.778.778 0 00.288.26.513.513 0 00.192.036.679.679 0 00.152 0 1.633 1.633 0 00.476-.212c.188-.112.4-.268.673-.46a5.168 5.168 0 00.554-.454z"/><path data-name="Path 93" d="M79.7-2.342a38.755 38.755 0 1038.751 38.752A38.756 38.756 0 0079.7-2.342zm28.575 17.387l.837 1.2-4.649 3.2 1.374 2-1.017.7-.032-.048-2.174-3.155zm-28.5 11.32a2.275 2.275 0 00-.244 4.529c-3.48 0-9.691.465-12.105.729a13.423 13.423 0 0124.539 0c-2.379-.264-8.441-.7-11.949-.733a2.275 2.275 0 00-.24-4.541zM66.28 21.788c-4 5.206-6.631 6.363-7.208 6.083-.444-.444-1.842-6.195 4-9.322a22.647 22.647 0 01-1.566 4.745 15.933 15.933 0 014.769-1.518zm5.158-2.8c-4.909 2.767-7.68 2.355-8.053 1.906l-.02-.048c-.2-.529 1.6-4.593 6.651-5.57-.8 1.482-1.874 1.842-3.059 3.2a14.7 14.7 0 014.486.509zm-9.042 8.165c-2.4 6.139-4.885 8.277-5.554 8.165l-.056-.032c-.585-.332-2.823-5.975.753-11.16a26.328 26.328 0 01.549 6.007 16.288 16.288 0 014.309-2.979zM56.71 37.508a18.019 18.019 0 013.4-3.74c-.38 5.142-1.53 9.21-2.327 9.27-.7 0-4.985-3.352-4.261-10.944a18.2 18.2 0 013.192 5.412zm2.279 8.037a17.552 17.552 0 01.989-5.706c2.242 4.349 2.731 9.7 2.279 10.031l-.116.088a9.417 9.417 0 01-8.786-9.907c2.627 2.34 4.236 4.078 5.638 5.492zm4.865 6.383c-.553-1.077-.557-2.675-.7-4.837 3.788 1.6 5.254 7.012 5.206 7.28l-.028.056c-.14.228-6.755 3.143-12.013-5.27 2.273.27 5.802 2.18 7.539 2.769zm2.4-14.856a13.372 13.372 0 01.741-4.369c2.763.088 8.009-.841 10.047 1.906 3.4 4.609.124 12.634-1.518 15.217a13.435 13.435 0 01-9.254-12.754zm29.212-19.754c3.368 1.438 3.732 4.765 3.5 5.106l-.02.028c-.336.26-2.355.132-5.33-2.547a10.662 10.662 0 013.232.316 12.614 12.614 0 01-1.361-2.9zm4.3 3.135c3.492 3.087 2.651 7.436 2.242 7.777l-.036.032c-.5.2-2.875-.717-5.422-5.206a12.815 12.815 0 013.756 1.6 17.538 17.538 0 01-.525-4.2zm3.824 5.326c2.206 4.833-.481 9.21-1.013 9.39h-.048c-.573 0-2.307-2.146-3.412-7.608a13.607 13.607 0 013.135 3.111 22.271 22.271 0 011.353-4.893zm-12.758-8.81c2.174-.569 3.68.344 4.233 2.09-1.81-.256-3.58-.769-4.217-2.1zM82.319 34.62c2.026-2.743 7.284-1.818 10.051-1.906a13.435 13.435 0 01-8.517 17.123c-1.642-2.595-4.917-10.62-1.518-15.229zm13.551 12.6c-.144 2.166-.148 3.764-.7 4.837 1.746-.585 5.27-2.5 7.536-2.767-5.246 8.409-11.861 5.5-12.013 5.266l-.028-.052c-.04-.284 1.438-5.674 5.226-7.3zm.665 3.015l-.108-.092c-.429-.332.4-5.466 2.883-9.591a16.14 16.14 0 01.621 5.522c1.478-1.325 3.5-4.177 5.606-5.438-1.273 8.337-8.77 9.739-8.986 9.587zm4.5-6.687c-.741-.152-1.534-5.362-1.357-10.812a15.826 15.826 0 012.659 4.785 33.434 33.434 0 013.684-5.609c.412 6.134-4.337 11.733-4.982 11.632zm6.007-30.057l-.889.853-1.67-1.742-1.069 1.021 1.574 1.642-.889.853-1.578-1.638-1.229 1.2 1.734 1.814-.889.849-2.756-2.885 4.969-4.757zm-8.009-6.055a1.8 1.8 0 01.981-.112 2.539 2.539 0 011.033.48 2.13 2.13 0 01.993 1.438 2.375 2.375 0 01-.553 1.6l-.032.048-1.149-.841.036-.044a1.754 1.754 0 00.188-.328 1.2 1.2 0 00.1-.36.8.8 0 00-.028-.34.508.508 0 00-.2-.268.685.685 0 00-.833.024 5.338 5.338 0 00-1.253 1.341c-.24.324-.448.629-.617.9a3.982 3.982 0 00-.4.745 1.17 1.17 0 00-.084.569.593.593 0 00.256.4.585.585 0 00.236.1.76.76 0 00.316 0 1.061 1.061 0 00.352-.14 1.133 1.133 0 00.332-.32l.376-.509-.7-.545.661-.9 1.87 1.37-.032.048-2.19 2.987-.9-.661.308-.424a1.406 1.406 0 01-.7.056 1.926 1.926 0 01-.8-.368 2.142 2.142 0 01-.713-.8 1.549 1.549 0 01-.1-.941 3.519 3.519 0 01.428-1.1 14.889 14.889 0 01.857-1.3 8.812 8.812 0 01.981-1.149 3.11 3.11 0 01.984-.659zM94.52 4.128l-.473 4.661 1.89-4 1.233.585-.024.052-2.923 6.163-1.514-.709.5-4.757-1.934 4.076-1.233-.585.024-.052 2.923-6.159zm-9 4.161l1.778-6.583 3.756 1.013-.32 1.2-2.351-.653-.4 1.426 2.194.593-.32 1.2-2.2-.593-.444 1.646 2.427.653-.324 1.2-3.848-1.037zm.841 11.909c-1.49.316-3.2-.885-4.769-2.311 1.714-.665 3.54.048 4.749 2.311zm-6.908-2.963a10.6 10.6 0 012.455 2.166c-4.425-.721-5.894-2.106-5.886-2.487v-.032c.152-.348 3.408-1.866 6.976-.2a16.973 16.973 0 01-3.564.557zm.561-16.29a1.942 1.942 0 011.317.424 1.754 1.754 0 01.513 1.345 2.1 2.1 0 01-.264 1.149 1.3 1.3 0 01-.685.537 1.142 1.142 0 01.589.3 1.453 1.453 0 01.32.853c0 .128.028.264.036.4a4.683 4.683 0 00.028.5 4.813 4.813 0 00.068.8.469.469 0 00.224.344h.028v.148l-1.566.024v-.024a.757.757 0 01-.148-.348 3.823 3.823 0 01-.044-.4l-.06-1.3a1.029 1.029 0 00-.2-.589.661.661 0 00-.541-.2h-.7l.048 2.859-1.478.024-.112-6.876zm-6.515 15.938a11.694 11.694 0 013.24 1.6c-4.889.533-6.852-.521-6.96-.933v-.04c.056-.4 3.039-3 7.3-2.27a16.546 16.546 0 01-3.574 1.639zM75.433 1.13l.212 1.2-2.379.4.256 1.458 2.238-.4.212 1.2-2.238.4.3 1.682 2.471-.436.216 1.2-3.928.693-1.2-6.775zm-8.674 2.2l1.626 4.489a2.8 2.8 0 00.188.424.985.985 0 00.228.288.6.6 0 00.288.132.74.74 0 00.372-.044.7.7 0 00.316-.2.616.616 0 00.132-.288.966.966 0 000-.368 2.743 2.743 0 00-.124-.441l-1.63-4.489 1.39-.5 1.63 4.489a2.8 2.8 0 01.2 1.085 1.67 1.67 0 01-.8 1.386 4.094 4.094 0 01-.741.36 4.359 4.359 0 01-.8.2 1.6 1.6 0 01-.276.02 1.554 1.554 0 01-1.205-.545 2.923 2.923 0 01-.561-1l-1.626-4.489zm-4.517 2.114l5.062 5.034-1.329.781-.981-1.089-1.47.869.457 1.39-1.325.8-1.926-6.852zm-6.031 4.233l3.656 4.3 1.842-1.566.8.937-2.963 2.523-4.457-5.238zm-4.032 4.121a3.469 3.469 0 01.569-.549 1.657 1.657 0 01.633-.3 1.353 1.353 0 01.689.036 2.118 2.118 0 01.737.4 1.77 1.77 0 01.581.829 1.305 1.305 0 010 .8 1.354 1.354 0 01.829-.28 1.734 1.734 0 011.085.457 2.851 2.851 0 01.525.577 1.6 1.6 0 01.264.7 1.818 1.818 0 01-.088.8 2.859 2.859 0 01-.525.893l-1.51 1.81-5.286-4.4zm.917 44.4a1.2 1.2 0 01-.581-.144 1.959 1.959 0 01-.613-.569l-.945-1.265 3.928-2.923.981 1.313a1.8 1.8 0 01.36.773 1.262 1.262 0 01-.092.7 2.275 2.275 0 01-.465.641 6.806 6.806 0 01-.737.625 6.936 6.936 0 01-.933.6 2.127 2.127 0 01-.8.252zm2.294 3.312l.573-.861-.821-.849-.881.545-.8-.8 4.4-2.475.893.921-2.575 4.329zm6.351-.136a1.562 1.562 0 01-.292.549l-.12.148-.8-.653.036-.044a.961.961 0 00.224-.457.4.4 0 00-.176-.344.576.576 0 00-.22-.12.369.369 0 00-.184 0 .4.4 0 00-.156.072.9.9 0 00-.136.14.6.6 0 00-.148.32.768.768 0 00.132.432l.376.717a2.508 2.508 0 01.2.493 1.229 1.229 0 01.04.4.989.989 0 01-.1.372 2 2 0 01-.228.348 1.386 1.386 0 01-1.065.6 2.038 2.038 0 01-1.2-.513 1.674 1.674 0 01-.709-1.049 1.45 1.45 0 01.4-1.053l.156-.2.841.677-.124.152a1.53 1.53 0 00-.164.244.468.468 0 00-.06.22.444.444 0 00.052.208.75.75 0 00.2.22.561.561 0 00.36.128.493.493 0 00.376-.216.7.7 0 00.132-.224.484.484 0 000-.228.833.833 0 00-.092-.284 3.941 3.941 0 00-.212-.372 3.462 3.462 0 01-.292-.541 1.526 1.526 0 01-.12-.493 1.073 1.073 0 01.072-.477 1.6 1.6 0 01.276-.469 1.394 1.394 0 011.013-.6 1.642 1.642 0 011.1.42 2.456 2.456 0 01.428.44 1.321 1.321 0 01.232.493 1.2 1.2 0 01-.048.529zm3.167 6.007a1.277 1.277 0 01-.553.264 1.087 1.087 0 01-.224 0 1.278 1.278 0 01-.344-.048 2.839 2.839 0 01-.541-.22 3.4 3.4 0 01-.485-.324 1.225 1.225 0 01-.34-.444 1.129 1.129 0 01-.084-.6 2.058 2.058 0 01.264-.773l1.6-2.983.949.513-1.6 2.983a2.059 2.059 0 00-.132.3.641.641 0 00-.044.248.4.4 0 00.06.208.617.617 0 00.432.24.428.428 0 00.216-.064.689.689 0 00.184-.176 1.887 1.887 0 00.176-.272l1.6-2.987.949.513-1.6 2.987a2.068 2.068 0 01-.493.649zm5.022 2.759l-.941-.34 1.169-3.2-1.882 2.951-.8-.284.453-3.476-1.169 3.2-.937-.34 1.67-4.605 1.446.525-.481 3.2 1.7-2.771 1.438.525zm5.246 1.073l-1.155-.21.08-3.232-1.053 3.059-1.153-.208v-4.977l1.025.184-.1 3.3 1.085-3.123 1.009.184-.068 3.3 1.057-3.127 1.025.184zm4.833-3.708l-1.706-.06-.036 1.009 1.6.06-.032.9-1.6-.056-.028 1.181 1.774.064-.032.905-2.855-.1.18-4.893 2.783.1zm.929 3.964l-.352-4.885 1.077-.08.284 3.984 1.706-.124.064.9zm4.9-.529l-1.065.176v-.058l-.633-3.884-1.033.168-.144-.893 3.127-.513.144.893-1.029.168zm-.3-10.884c-3.572-3.284-4.693-4.024-5.846-4.085-1.149.06-2.275.8-5.846 4.085-.4.372-2.166.276-1.426-.4a26.242 26.242 0 016.475-4.137c.176-.056-3.2-1.265-6.884 1.361-1.834 1.3-3.864 2.831-6.731 1.406a6.992 6.992 0 01-2.951-2.655c2.138.625 4.725.8 8.433-.945 4-1.866 7.785-.076 8.93.292 1.145-.368 4.917-2.158 8.93-.292 3.708 1.73 6.295 1.57 8.433.945a6.96 6.96 0 01-2.951 2.655c-2.867 1.426-4.9-.1-6.731-1.406-3.7-2.627-7.06-1.418-6.884-1.361a26.243 26.243 0 016.483 4.139c.745.669-1.025.765-1.426.392zm2.118 10.54l-.212-.745.8-3.564-1.546.432-.244-.869 2.759-.781.216.773-.8 3.532 1.71-.485.244.873zm3.888-1.169l-1.854-4.533 2.583-1.053.34.837-1.594.657.4.937 1.486-.609.344.837-1.49.609.445 1.085 1.642-.669.344.837zm3.544-1.546l-2.247-4.349.957-.5.024.052 2.226 4.3zm4-2.4a1.81 1.81 0 01-.589.561 1.906 1.906 0 01-.849.332h-.1a1.2 1.2 0 01-.617-.168 2.278 2.278 0 01-.629-.553 9.677 9.677 0 01-.589-.825 8.407 8.407 0 01-.5-.873 2.294 2.294 0 01-.248-.8 1.281 1.281 0 01.144-.729 1.794 1.794 0 01.645-.645 1.682 1.682 0 01.8-.308 1.2 1.2 0 01.633.12 1.562 1.562 0 01.473.4 5.164 5.164 0 01.34.456l.028.048-.9.581-.032-.048a1.733 1.733 0 00-.5-.553.481.481 0 00-.625.256.645.645 0 000 .332 2.717 2.717 0 00.224.517c.112.208.26.452.444.737a8.047 8.047 0 00.5.713 1.932 1.932 0 00.364.364.465.465 0 00.244.092.545.545 0 00.236-.084.533.533 0 00.16-.152.325.325 0 00.056-.216 1.06 1.06 0 00-.088-.356 3.127 3.127 0 00-.292-.545l-.032-.048.9-.581.032.048a4.073 4.073 0 01.352.661 1.709 1.709 0 01.148.653 1.2 1.2 0 01-.144.585zm3.2-2.379l-1.365-1.626-.773.649 1.365 1.63-.829.693-3.147-3.756.829-.689 1.173 1.4.777-.653-1.173-1.4.825-.693 3.147 3.752zm1.722-1.558l-.04-.04-3.532-3.312 1.91-2.03.657.617-1.169 1.245.741.693 1.1-1.173.661.621-1.093 1.165.857.8 1.2-1.293.661.617zm3.884-4.617l-3.155-.953 2.511 1.838-.593.8-.044-.036-3.9-2.851.713-.973 3.091.921-2.451-1.794.589-.8.044.032 3.908 2.859z"/></g><g data-name="Group 9" transform="translate(-.2 81.982)" clip-path="url(#prefix__a)"><path data-name="Path 94" d="M5.586.28C5.37.28.28.352.28 5.586v7.981c0 .216.072 5.306 5.306 5.306h148.447c.216 0 5.306-.072 5.306-5.306V5.586c0-.216-.072-5.306-5.306-5.306z" fill="#fff"/><path data-name="Path 95" d="M5.586.28C5.37.28.28.352.28 5.586v7.981c0 .216.072 5.306 5.306 5.306h148.447c.216 0 5.306-.072 5.306-5.306V5.586c0-.216-.072-5.306-5.306-5.306z" fill="none" stroke="#005ca9"/></g><path data-name="Path 96" d="M9.138 89.899h1.71l.781 4.733h.024l.833-4.733h1.858l.881 4.733h.024l.8-4.733h1.634l-1.434 6.667h-1.941l-.881-4.733h-.024l-.833 4.733h-1.982z" fill="#005ca9"/><path data-name="Path 97" d="M17.86 89.899h1.71l.781 4.733h.024l.833-4.733h1.858l.877 4.733h.028l.8-4.733h1.634l-1.45 6.667h-1.942l-.861-4.733h-.024l-.837 4.733H19.31z" fill="#005ca9"/><path data-name="Path 98" d="M26.581 89.899h1.71l.781 4.733h.024l.833-4.733h1.858l.877 4.733h.028l.8-4.733h1.634l-1.434 6.667h-1.93l-.877-4.733h-.024l-.849 4.733h-1.981z" fill="#005ca9"/><path data-name="Path 99" d="M37.077 94.632v1.93h-1.638v-1.93z" fill="#005ca9"/><path data-name="Path 100" d="M38.314 87.717h1.71v2.8h.024a1.6 1.6 0 011.438-.8c1.4 0 2.042 1.029 2.042 3.5s-.641 3.508-2.042 3.508a1.6 1.6 0 01-1.514-.881h-.024v.717h-1.634zm2.615 7.708c.741 0 .893-.745.893-2.194s-.152-2.19-.893-2.19-.9.741-.9 2.19.143 2.194.9 2.194z" fill="#005ca9"/><path data-name="Path 101" d="M44.577 87.717h1.71v8.85h-1.71z" fill="#005ca9"/><path data-name="Path 102" d="M47.468 91.945v-.164c0-1.534 1.053-2.054 2.343-2.054 2.03 0 2.4.841 2.4 2.042v3.508a2.687 2.687 0 00.212 1.289h-1.638a2.9 2.9 0 01-.208-.7 1.648 1.648 0 01-1.7.869c-1.2 0-1.6-1.017-1.6-1.906 0-1.253.509-1.762 1.686-2.082l.969-.26c.5-.136.681-.336.681-.781a.7.7 0 00-.8-.8.761.761 0 00-.8.865v.188zm3.123 1.285a2.117 2.117 0 01-.733.336c-.693.148-.965.485-.965 1.077 0 .509.184.929.645.929a1.009 1.009 0 001.045-1.009z" fill="#005ca9"/><path data-name="Path 103" d="M56.859 95.785h-.024a1.83 1.83 0 01-1.7.953c-1.065 0-1.7-.585-1.7-1.894v-4.945h1.71v4.6c0 .669.224.929.733.929.581 0 .9-.36.9-1.1v-4.4h1.706v6.647h-1.625z" fill="#005ca9"/><path data-name="Path 104" d="M61.096 93.491v.533c0 .8.212 1.55.841 1.55s.8-.432.9-1.249h1.538a2.172 2.172 0 01-2.4 2.4c-2.479 0-2.579-1.906-2.579-3.568 0-1.786.348-3.444 2.651-3.444 2 0 2.443 1.337 2.443 3.38v.4zm1.746-1.013c-.036-1.017-.16-1.6-.865-1.6s-.881.7-.881 1.325v.26z" fill="#005ca9"/><path data-name="Path 105" d="M65.368 89.899h1.634v.893h.024a1.723 1.723 0 011.538-1.065 2.735 2.735 0 01.308.024v1.634c-.172 0-.36-.024-.533-.024a1.153 1.153 0 00-1.265 1.2v4h-1.71z" fill="#005ca9"/><path data-name="Path 106" d="M72.516 92.254v1.462h-3.492v-1.462z" fill="#005ca9"/><path data-name="Path 107" d="M75.095 93.491v.533c0 .8.208 1.55.841 1.55s.8-.432.9-1.249h1.538a2.174 2.174 0 01-2.4 2.4c-2.475 0-2.575-1.906-2.575-3.568 0-1.786.344-3.444 2.651-3.444 2 0 2.443 1.337 2.443 3.38v.4zm1.746-1.013c-.036-1.017-.16-1.6-.865-1.6s-.881.7-.881 1.325v.26z" fill="#005ca9"/><path data-name="Path 108" d="M79.368 89.899h1.65v.781a1.822 1.822 0 011.694-.953c1.069 0 1.7.581 1.7 1.894v4.945h-1.71v-4.6c0-.669-.22-.929-.729-.929-.581 0-.9.356-.9 1.1v4.425h-1.71z" fill="#005ca9"/><path data-name="Path 109" d="M90.556 89.899v6.331c0 1.758-.781 2.615-2.775 2.615-1.45 0-2.271-.645-2.271-1.786h1.638a.6.6 0 00.26.509 1 1 0 00.569.188c.693 0 .941-.521.941-1.2v-.877h-.024a1.794 1.794 0 01-1.426.8c-1.361 0-2.042-.929-2.042-3.372 0-1.558.236-3.392 2.094-3.392a1.482 1.482 0 011.373.917h.024v-.745zm-2.567 5.278c.721 0 .929-.781.929-1.906 0-1.626-.208-2.23-.889-2.23-.757 0-.893.6-.893 2.4 0 .919.136 1.736.853 1.736z" fill="#005ca9"/><path data-name="Path 110" d="M93.219 93.491v.533c0 .8.208 1.55.841 1.55s.8-.432.9-1.249h1.538a2.174 2.174 0 01-2.4 2.4c-2.475 0-2.575-1.906-2.575-3.568 0-1.786.344-3.444 2.651-3.444 2 0 2.439 1.337 2.439 3.38v.4zm1.746-1.013c-.036-1.017-.16-1.6-.869-1.6s-.877.7-.877 1.325v.26z" fill="#005ca9"/><path data-name="Path 111" d="M97.556 87.717h1.706v8.85h-1.706z" fill="#005ca9"/><path data-name="Path 112" d="M102.201 94.632v1.93h-1.638v-1.93z" fill="#005ca9"/><path data-name="Path 113" d="M106.858 95.858h-.024a1.6 1.6 0 01-1.514.881c-1.4 0-2.042-1.029-2.042-3.508s.645-3.5 2.042-3.5a1.6 1.6 0 011.438.8h.024v-2.8h1.71v8.842h-1.634zm-.977-.432c.753 0 .9-.745.9-2.194s-.148-2.19-.9-2.19-.893.741-.893 2.19.148 2.194.893 2.194z" fill="#005ca9"/><path data-name="Path 114" d="M111.095 93.491v.533c0 .8.208 1.55.841 1.55s.8-.432.905-1.249h1.538a2.174 2.174 0 01-2.4 2.4c-2.475 0-2.575-1.906-2.575-3.568 0-1.786.348-3.444 2.651-3.444 2 0 2.443 1.337 2.443 3.38v.4zm1.746-1.013c-.036-1.017-.16-1.6-.865-1.6s-.881.7-.881 1.325v.26z" fill="#005ca9"/><path data-name="Path 115" d="M118.831 86.347l-3.436 10.387h-.741l3.436-10.387z" fill="#005ca9"/><path data-name="Path 116" d="M119.508 89.09h.841v5.27c0 1.2.4 1.674 1.3 1.674a1.7 1.7 0 001.634-1.914v-5.03h.841v7.476h-.757v-1.041h-.028a2.106 2.106 0 01-1.914 1.2 1.756 1.756 0 01-1.914-2z" fill="#005ca9"/><path data-name="Path 117" d="M125.194 95.86l3.544-6.067h-3.364v-.7h4.265v.7l-3.544 6.067h3.544v.7h-4.445z" fill="#005ca9"/><path data-name="Path 118" d="M133.131 88.958h-2.279v-.641c1.674 0 2.4-.677 2.479-1.718h.645v9.967h-.845z" fill="#005ca9"/><path data-name="Path 119" d="M137.227 86.768h5.606v.761a17.6 17.6 0 00-3.576 9.038h-.957a17.752 17.752 0 013.684-9.038h-4.757z" fill="#005ca9"/><path data-name="Path 120" d="M148.52 88.958a1.525 1.525 0 00-1.578-1.634c-1.378 0-2.054 1.237-2.1 4.533l.028.028a2.154 2.154 0 012.142-1.634c1.73 0 2.615 1.265 2.615 3.1s-.857 3.408-2.771 3.408c-2.25 0-2.915-1.662-2.915-4.805 0-3.264.649-5.334 3.043-5.334a2.234 2.234 0 012.435 2.339zm-1.65 7.092c1.382 0 1.858-1.265 1.858-2.547s-.477-2.547-1.858-2.547-1.854 1.265-1.854 2.547.473 2.527 1.854 2.527z" fill="#005ca9"/></g></svg>
