<svg viewBox="0 0 176 176" xmlns="http://www.w3.org/2000/svg" fill-rule="evenodd" clip-rule="evenodd" stroke-linejoin="round" stroke-miterlimit="2"><path d="M74.8 58H39.1v10.3h35.7c11 0 20 8.8 20 19.7 0 10.9-8.9 19.7-20 19.7H56.3V118h18.5c16.8 0 30.3-13.4 30.3-29.9S91.6 58 74.8 58z" fill="#0084b0" fill-rule="nonzero"/><path d="M39.2 82.9H10.3V58H0v59.9h10.3V93h28.9v24.9h10.3v-43H39.2v8zm72.7-8h10.2v43h-10.2v-43zm26.8 0h10.2v43h-10.2v-43z" fill="#0084b0" fill-rule="nonzero"/><path d="M175.8 75.6c0-10.2-8-17.6-18.5-17.6h-45.4v10.2h45.4c4.3 0 8.3 2.9 8.2 7.3v42.4h10.3V75.6z" fill="#0084b0" fill-rule="nonzero"/></svg>
