<svg version="1.1" id="prefix__Ebene_1" xmlns="http://www.w3.org/2000/svg" x="0" y="0" viewBox="0 0 176 60" xml:space="preserve"><style>.prefix__st0{fill:#0084b0}</style><path class="prefix__st0" d="M74.8 0H39.1v10.3h35.7c11 0 20 8.8 20 19.7 0 10.9-8.9 19.7-20 19.7H56.3V60h18.5c16.8 0 30.3-13.4 30.3-29.9S91.6 0 74.8 0z"/><path class="prefix__st0" d="M39.2 24.9H10.3V0H0v59.9h10.3V35h28.9v24.9h10.3v-43H39.2zM111.9 16.9h10.2v43h-10.2zM138.7 16.9h10.2v43h-10.2z"/><path class="prefix__st0" d="M175.8 17.6c0-10.2-8-17.6-18.5-17.6h-45.4v10.2h45.4c4.3 0 8.3 2.9 8.2 7.3v42.4h10.3V17.6z"/></svg>
