<svg xmlns="http://www.w3.org/2000/svg" viewBox="0 0 283.46 283.46"><path fill="#fff" d="M29.13 30.59V254.8h224.2V30.59H29.13z"/><path fill="none" stroke="#000" stroke-width="6.25" d="M29.13 30.59V254.8h224.2V30.59H29.13z"/><path d="M144.51 81.1h-41.96v23.89h36.64v13.49h-36.64v25.13h42.95v14.23H87.08V66.87h57.43V81.1zM191.94 63.76h-.5l-36.36 21.51 6.54 13.72 15.1-8.56v67.45h15.22V63.76zM74.34 189.16c0 6.52-4.11 10.35-11.19 10.35h-6.38v-20.67h6.38c7.03 0 11.19 3.79 11.19 10.32zm-14.06-7.06v14.17h2.78c5.03 0 7.73-2.62 7.73-7.11 0-4.47-2.73-7.06-7.73-7.06h-2.78zM81.62 199.51H78.1v-20.67h3.52v20.67zM99.29 191.63v-12.8h3.52v21.04h-.11l-12.6-13.19v12.82h-3.52v-21.04h.11l12.6 13.17zM127.89 182.07h-9.53v5.43h8.32v3.07h-8.32v5.71h9.76v3.23h-13.27v-20.67h13.05v3.23zM144.54 191.63v-12.8h3.51v21.04h-.11l-12.6-13.19v12.82h-3.52v-21.04h.11l12.61 13.17zM166.57 199.51h-3.4v-15.07l-3.38 1.91-1.46-3.07 8.13-4.81h.11v21.04zM184 193.01c0 4.02-3.12 6.86-6.95 6.86-3.8 0-6.92-2.84-6.92-6.86 0-1.43.39-2.7 1.29-4.11l6.5-10.07h3.82l-4.67 7.28c3.81.04 6.93 2.93 6.93 6.9zm-3.46 0c0-2.28-1.52-3.85-3.49-3.85-1.94 0-3.43 1.57-3.43 3.85 0 2.28 1.49 3.82 3.43 3.82 1.98 0 3.49-1.54 3.49-3.82zM198.69 181.9h-7.76v5.17c.59-.25 1.32-.48 2.31-.48 3.85 0 6.72 2.45 6.72 6.69 0 3.77-2.59 6.58-6.72 6.58-3.4 0-5.54-1.63-6.69-4.27l2.78-1.49c.67 1.58 1.88 2.7 3.77 2.7 2 0 3.43-1.55 3.43-3.66 0-2.17-1.46-3.6-3.57-3.6-1.52 0-2.42.59-3.18 1.21l-2.28-1.07v-10.86h11.19v3.08z"/><g><path d="M209.57 199.51h-3.4v-15.07l-3.38 1.91-1.46-3.07 8.13-4.81h.11v21.04zM227.01 193.01c0 4.02-3.12 6.86-6.95 6.86-3.8 0-6.92-2.84-6.92-6.86 0-1.43.39-2.7 1.29-4.11l6.5-10.07h3.82l-4.67 7.28c3.81.04 6.93 2.93 6.93 6.9zm-3.46 0c0-2.28-1.52-3.85-3.49-3.85-1.94 0-3.43 1.57-3.43 3.85 0 2.28 1.49 3.82 3.43 3.82 1.97 0 3.49-1.54 3.49-3.82z"/></g><g><path d="M69.86 231.04h-.11l-7.54-14.46h3.66l3.94 8.16 3.97-8.16h3.6l-7.52 14.46z"/></g><g><path d="M81.58 228.82c0 1.29-.93 2.22-2.22 2.22s-2.22-.93-2.22-2.22.93-2.22 2.22-2.22 2.22.92 2.22 2.22zM99.13 220.41c0 6.55-2.7 10.71-7.34 10.71s-7.34-4.16-7.34-10.71c0-6.52 2.7-10.69 7.34-10.69s7.34 4.16 7.34 10.69zm-11.22 0c0 4.64 1.24 7.68 3.88 7.68s3.88-3.04 3.88-7.68c0-4.61-1.24-7.65-3.88-7.65s-3.88 3.03-3.88 7.65zM109.34 230.76h-3.4v-15.07l-3.37 1.91-1.46-3.07 8.13-4.81h.11v21.04zM117.84 228.82c0 1.29-.93 2.22-2.22 2.22s-2.22-.93-2.22-2.22.93-2.22 2.22-2.22c1.29-.01 2.22.92 2.22 2.22zM135.39 220.41c0 6.55-2.7 10.71-7.34 10.71s-7.34-4.16-7.34-10.71c0-6.52 2.7-10.69 7.34-10.69s7.34 4.16 7.34 10.69zm-11.22 0c0 4.64 1.24 7.68 3.88 7.68s3.88-3.04 3.88-7.68c0-4.61-1.24-7.65-3.88-7.65s-3.88 3.03-3.88 7.65zM145.6 230.76h-3.4v-15.07l-3.37 1.91-1.46-3.07 8.13-4.81h.11v21.04zM154.09 228.82c0 1.29-.93 2.22-2.22 2.22s-2.22-.93-2.22-2.22.93-2.22 2.22-2.22c1.3-.01 2.22.92 2.22 2.22zM169.53 216.02c0 2.45-.93 4.11-2.5 6.13l-4.44 5.54h7.17v3.07H156.8v-.17l7.51-10.15c1.35-1.77 1.8-2.81 1.8-4.47 0-2-1.32-3.18-3.09-3.18-1.88 0-2.92 1.1-3.32 3.29l-3.09-.73c.73-3.74 2.92-5.62 6.41-5.62 3.9-.01 6.51 2.61 6.51 6.29zM186.86 220.41c0 6.55-2.7 10.71-7.34 10.71s-7.34-4.16-7.34-10.71c0-6.52 2.7-10.69 7.34-10.69s7.34 4.16 7.34 10.69zm-11.22 0c0 4.64 1.24 7.68 3.88 7.68s3.88-3.04 3.88-7.68c0-4.61-1.24-7.65-3.88-7.65s-3.88 3.03-3.88 7.65zM201.96 216.02c0 2.45-.93 4.11-2.5 6.13l-4.44 5.54h7.17v3.07h-12.96v-.17l7.51-10.15c1.35-1.77 1.8-2.81 1.8-4.47 0-2-1.32-3.18-3.09-3.18-1.88 0-2.92 1.1-3.32 3.29l-3.09-.73c.73-3.74 2.92-5.62 6.41-5.62 3.9-.01 6.51 2.61 6.51 6.29z"/></g><g><path d="M219.4 220.41c0 6.55-2.7 10.71-7.34 10.71s-7.34-4.16-7.34-10.71c0-6.52 2.7-10.69 7.34-10.69s7.34 4.16 7.34 10.69zm-11.22 0c0 4.64 1.24 7.68 3.88 7.68s3.88-3.04 3.88-7.68c0-4.61-1.24-7.65-3.88-7.65s-3.88 3.03-3.88 7.65z"/></g></svg>
