<svg xmlns="http://www.w3.org/2000/svg" viewBox="0 0 240.675 60.889"><defs><style>.prefix__a{fill:#1d1d1b}.prefix__b{fill:#0084b0}</style></defs><path class="prefix__a" d="M187.932 38.13h-.684v-3.056h-3.586v3.056h-.682v-6.606h.682v2.913h3.586v-2.913h.684zM201.038 34.831a3.3 3.3 0 11-3.3-3.424 3.253 3.253 0 013.3 3.424zm-5.905 0a2.612 2.612 0 105.213 0 2.612 2.612 0 10-5.213 0zM208.25 37.51h3.308v.62h-3.99v-6.606h.682zM221.851 31.561l-3.443 5.94h3.551v.629h-4.646v-.036l3.468-5.941h-3.316v-.629h4.386zM188.435 46.143c0 2.085-1.285 3.307-3.514 3.307h-1.941v-6.605h1.941c2.211 0 3.514 1.213 3.514 3.298zm-4.773-2.661v5.331h1.238a2.671 2.671 0 100-5.331zM198.953 43.482h-3.307v2.31h2.921v.62h-2.921v2.4h3.379v.637h-4.062v-6.604h3.99zM209.345 43.438l-.332.584a2.921 2.921 0 00-1.789-.666c-.791 0-1.411.37-1.411 1.2 0 .692.4.953 1.582 1.214 1.554.34 2.175.836 2.175 1.851a2.011 2.011 0 01-2.283 1.95 3.437 3.437 0 01-2.337-.827l.387-.566a2.914 2.914 0 001.968.764c.9 0 1.582-.441 1.582-1.267 0-.674-.5-1.016-1.69-1.268-1.554-.341-2.067-.817-2.067-1.815a1.874 1.874 0 012.1-1.86 3.457 3.457 0 012.115.706zM216.727 49.45h-.683v-6.605h.683zM228.844 43.671l-.44.5a2.538 2.538 0 00-1.887-.81 2.6 2.6 0 00-2.589 2.786 2.632 2.632 0 002.7 2.778 2.741 2.741 0 001.7-.539V46.7h-1.815v-.6h2.5v2.633a3.489 3.489 0 01-2.382.836 3.282 3.282 0 01-3.379-3.416 3.244 3.244 0 013.272-3.423 3.117 3.117 0 012.32.941zM239.991 47.823v-4.978h.684v6.722h-.036l-4.242-5.1v4.983h-.683v-6.722h.035zM189.19 60.772h-.683v-4.36l-2.391 4.4h-.063l-2.391-4.4v4.36h-.682v-6.723h.035l3.065 5.51 3.074-5.51h.036zM202.306 57.473a3.3 3.3 0 11-3.3-3.424 3.254 3.254 0 013.3 3.424zm-5.905 0a2.612 2.612 0 102.606-2.786 2.6 2.6 0 00-2.607 2.786zM212.824 54.8h-3.307v2.309h2.921v.62h-2.921v2.4h3.383v.638h-4.062v-6.601h3.99zM223.118 60.772l-1.627-2.607c-.062 0-.126.009-.188.009H220v2.6h-.682v-6.608h1.982c1.339 0 2.318.71 2.318 2a1.858 1.858 0 01-1.411 1.878l1.717 2.724zm-.188-4.6c0-.917-.665-1.393-1.681-1.393H220v2.777h1.25c1.024-.002 1.68-.469 1.68-1.386zM234.176 54.759l-.332.584a2.926 2.926 0 00-1.789-.665c-.791 0-1.411.369-1.411 1.2 0 .692.395.953 1.582 1.214 1.554.341 2.175.836 2.175 1.851a2.011 2.011 0 01-2.283 1.951 3.441 3.441 0 01-2.337-.827l.387-.567a2.916 2.916 0 001.968.764c.9 0 1.582-.441 1.582-1.267 0-.674-.5-1.015-1.689-1.267-1.555-.342-2.068-.818-2.068-1.816a1.874 1.874 0 012.1-1.86 3.463 3.463 0 012.115.705z"/><g><path class="prefix__b" d="M74.8.011H39.128v10.367H74.8a19.972 19.972 0 010 39.944H56.306v10.367H74.8a30.339 30.339 0 100-60.678z"/><path class="prefix__b" d="M39.183 25.216H10.267V.014H0v60.704h10.267V35.483h28.916v25.235H49.45V17.125H39.183v8.091zM111.9 17.123h10.179v43.648H111.9zM138.695 17.123h10.179v43.646h-10.179z"/><path class="prefix__b" d="M175.764 17.776C175.764 7.487 167.726 0 157.263 0L111.91.019l-.01 10.329 45.363.017c4.307 0 8.253 2.851 8.229 7.411v42.993h10.266l.006-42.993z"/></g></svg>
